<svg width="164" height="24" viewBox="0 0 164 24" fill="none" xmlns="http://www.w3.org/2000/svg">
<mask id="mask0" mask-type="alpha" maskUnits="userSpaceOnUse" x="0" y="0" width="164" height="24">
<path fill-rule="evenodd" clip-rule="evenodd" d="M0 0H164V24H0V0Z" fill="white"/>
</mask>
<g mask="url(#mask0)">
<path fill-rule="evenodd" clip-rule="evenodd" d="M118.995 0L115 24H121.005L125 0H118.995Z" fill="#2F81B8"/>
<path fill-rule="evenodd" clip-rule="evenodd" d="M145 2.35147e-07H138.832L136.917 11.2008L132.452 1.87008C131.907 0.730553 130.784 -0.000478659 129.552 2.35147e-07H127.103L123 24H129.168L131.106 12.6655L135.658 22.144C136.205 23.2809 137.328 24 138.558 24H140.897L145 2.35147e-07Z" fill="#2F81B8"/>
<path fill-rule="evenodd" clip-rule="evenodd" d="M161.977 5.96941L163 0H147.12L143 24H158.879L159.903 18.0308H150.218L150.844 14.3893H158.465L159.49 8.41991H151.869L152.292 5.96941H161.977Z" fill="#2F81B8"/>
<path fill-rule="evenodd" clip-rule="evenodd" d="M105.496 18.0308L108.544 0H102.445L99.0495 20.0826C98.704 22.1266 100.211 24 102.201 24H111.991L113 18.0308H105.496Z" fill="#2F81B8"/>
<path fill-rule="evenodd" clip-rule="evenodd" d="M21.9948 0L18 24H24.0052L28 0H21.9948Z" fill="#2D2E2C"/>
<path fill-rule="evenodd" clip-rule="evenodd" d="M50.9946 0L47 24H53.0054L57 0H50.9946Z" fill="#2D2E2C"/>
<path fill-rule="evenodd" clip-rule="evenodd" d="M49 2.35147e-07H42.832L40.9172 11.2008L36.4523 1.87008C35.9069 0.730553 34.7838 -0.000478659 33.5518 2.35147e-07H31.1033L27 24H33.1678L35.1053 12.6655L39.6585 22.144C40.2045 23.2809 41.3281 24 42.558 24H44.897L49 2.35147e-07Z" fill="#2D2E2C"/>
<path fill-rule="evenodd" clip-rule="evenodd" d="M18.9779 5.96941L20 0H9.57428C6.41985 0 3.72097 2.32599 3.17332 5.51614L0 24H6.1944L7.84435 14.3893H15.4649L16.4898 8.41991H8.86925L9.29264 5.96941H18.9779Z" fill="#2D2E2C"/>
<path fill-rule="evenodd" clip-rule="evenodd" d="M87.7149 0L86.0408 9.61092H80.7914L82.4657 0H76.1807L72 24H78.2848L79.7527 15.5734H85.0021L83.5343 24H89.8193L94 0H87.7149Z" fill="#2D2E2C"/>
<path fill-rule="evenodd" clip-rule="evenodd" d="M65.379 5.96941H72.9397L74 0H62.8857C59.3626 0 57.0585 3.66497 58.6066 6.80628L63.9593 17.6302C64.0504 17.8151 63.9149 18.0306 63.7076 18.0306H56.0605L55 24H66.2221C69.7517 24 72.0556 20.3235 70.4952 17.1813L65.1276 6.37048C65.0354 6.18563 65.171 5.96941 65.379 5.96941Z" fill="#2D2E2C"/>
<path fill-rule="evenodd" clip-rule="evenodd" d="M162.486 22.363C162.717 22.363 162.893 22.363 162.893 22.1051C162.893 21.8875 162.708 21.8465 162.521 21.8465H162.185V22.363H162.486ZM162.17 23.3568H161.919V21.6461H162.55C162.95 21.6437 163.188 21.8022 163.188 22.1352C163.188 22.4318 162.977 22.5508 162.739 22.5759L163.208 23.3568H162.937L162.459 22.598H162.17L162.174 23.3489L162.17 23.3568ZM162.488 23.7258C163.161 23.7285 163.702 23.1992 163.702 22.4779C163.702 21.7881 163.161 21.24 162.486 21.2441C161.823 21.2441 161.289 21.7881 161.289 22.4779C161.291 23.1992 161.823 23.7258 162.488 23.7258ZM161 22.492C161 21.6461 161.689 21 162.481 21C163.319 21 164.002 21.6437 164 22.49C163.998 23.3568 163.304 23.9973 162.481 24C161.676 24 161 23.3589 161 22.492Z" fill="#2F81B8"/>
</g>
</svg>
